<svg width="48" height="48" viewBox="0 0 48 48" fill="none" xmlns="http://www.w3.org/2000/svg">
<path d="M39 48H9C4.029 48 0 43.971 0 39V9C0 4.029 4.029 0 9 0H39C43.971 0 48 4.029 48 9V39C48 43.971 43.971 48 39 48Z" fill="#FBF6EA"/>
<g clip-path="url(#clip0_15946_645)">
<path d="M17.8505 18.2114L15.8579 18.3654C15.3034 18.4082 14.8096 18.6988 14.503 19.1626L12.2049 22.6383C11.9724 22.99 11.9354 23.4302 12.106 23.8158C12.2766 24.2014 12.6272 24.4702 13.0439 24.5347L14.8683 24.8173C15.2951 22.5523 16.3168 20.293 17.8505 18.2114Z" fill="#FFD050"/>
<path d="M22.1836 32.1316L22.4662 33.9561C22.5307 34.3728 22.7995 34.7234 23.185 34.8939C23.3454 34.9649 23.5152 34.9999 23.6842 34.9999C23.9215 34.9999 24.1572 34.9308 24.3626 34.795L27.8384 32.497C28.3022 32.1903 28.5928 31.6964 28.6355 31.142L28.7895 29.1494C26.7079 30.6832 24.4486 31.7049 22.1836 32.1316Z" fill="#FFD050"/>
<path d="M21.4966 30.8665C21.5599 30.8665 21.6236 30.8613 21.6872 30.8507C22.6361 30.6921 23.5507 30.4248 24.4232 30.0749L16.9244 22.5762C16.5746 23.4486 16.3073 24.3632 16.1486 25.3122C16.0861 25.6862 16.2116 26.0673 16.4797 26.3355L20.6639 30.5196C20.8865 30.7422 21.187 30.8665 21.4966 30.8665Z" fill="#FFD050"/>
<path d="M33.1661 22.1973C35.0011 18.6497 35.069 14.9007 34.9731 13.1425C34.9403 12.54 34.46 12.0597 33.8575 12.0269C33.5712 12.0113 33.2319 12 32.8495 12C30.8835 12 27.7726 12.2978 24.8027 13.834C22.4424 15.0548 19.3475 17.7429 17.5215 21.2757C17.543 21.2925 17.5641 21.3104 17.584 21.3302L25.6698 29.4161C25.6897 29.436 25.7075 29.457 25.7244 29.4786C29.2571 27.6525 31.9453 24.5576 33.1661 22.1973ZM25.3731 16.8623C26.6866 15.5488 28.8241 15.5486 30.1377 16.8623C30.7741 17.4986 31.1245 18.3447 31.1245 19.2446C31.1245 20.1445 30.7741 20.9906 30.1377 21.627C29.481 22.2837 28.618 22.6121 27.7554 22.6122C26.8925 22.6122 26.03 22.2838 25.3731 21.627C24.7367 20.9906 24.3863 20.1445 24.3863 19.2446C24.3863 18.3447 24.7367 17.4986 25.3731 16.8623Z" fill="#232536"/>
<path d="M26.3264 20.674C27.1146 21.4622 28.3971 21.4622 29.1853 20.674C29.5671 20.2922 29.7773 19.7846 29.7773 19.2446C29.7773 18.7047 29.5671 18.197 29.1853 17.8152C28.7912 17.4211 28.2735 17.2241 27.7559 17.2241C27.2382 17.2241 26.7205 17.4211 26.3265 17.8152C25.9447 18.197 25.7344 18.7047 25.7344 19.2446C25.7344 19.7846 25.9447 20.2922 26.3264 20.674Z" fill="#232536"/>
<path d="M12.6875 30.9539C12.86 30.9539 13.0324 30.8881 13.164 30.7565L15.3639 28.5565C15.6271 28.2934 15.6271 27.8668 15.3639 27.6036C15.1008 27.3405 14.6741 27.3405 14.411 27.6036L12.211 29.8036C11.9479 30.0667 11.9479 30.4934 12.211 30.7565C12.3426 30.8881 12.5151 30.9539 12.6875 30.9539Z" fill="#FFD050"/>
<path d="M17.3799 29.6202C17.1168 29.3571 16.6901 29.3571 16.427 29.6202L12.1974 33.8498C11.9342 34.113 11.9342 34.5396 12.1974 34.8028C12.3289 34.9343 12.5014 35.0001 12.6739 35.0001C12.8463 35.0001 13.0188 34.9343 13.1503 34.8027L17.3799 30.5731C17.6431 30.31 17.6431 29.8834 17.3799 29.6202Z" fill="#FFD050"/>
<path d="M18.4422 31.6358L16.2423 33.8358C15.9791 34.099 15.9791 34.5256 16.2423 34.7887C16.3739 34.9203 16.5463 34.9861 16.7187 34.9861C16.8911 34.9861 17.0636 34.9203 17.1952 34.7887L19.3951 32.5888C19.6583 32.3256 19.6583 31.899 19.3951 31.6358C19.132 31.3727 18.7054 31.3727 18.4422 31.6358Z" fill="#FFD050"/>
</g>
<defs>
<clipPath id="clip0_15946_645">
<rect width="23" height="23" fill="white" transform="translate(12 12)"/>
</clipPath>
</defs>
</svg>
